<?xml version="1.0" encoding="utf-8"?>
<!-- Generator: Adobe Illustrator 25.4.1, SVG Export Plug-In . SVG Version: 6.00 Build 0)  -->
<svg version="1.1" id="Capa_1" xmlns="http://www.w3.org/2000/svg" xmlns:xlink="http://www.w3.org/1999/xlink" x="0px" y="0px"
	 width="10px" height="2.617px" viewBox="0 0 10 2.617" style="enable-background:new 0 0 10 2.617;" xml:space="preserve">
<style type="text/css">
	.st0{fill:#F2F2F2;}
	.st1{opacity:0.3;fill:#333333;}
</style>
<path class="st0" d="M0.211,2.502c-0.068,0-0.128-0.04-0.154-0.103C0.031,2.336,0.045,2.265,0.093,2.217l0.743-0.742H0.211
	c-0.068,0-0.128-0.04-0.154-0.103C0.031,1.309,0.045,1.238,0.093,1.191L1.12,0.163c0.031-0.031,0.073-0.049,0.118-0.049h2.054
	c0.068,0,0.128,0.04,0.154,0.103C3.472,0.28,3.457,0.351,3.41,0.399L2.667,1.141h0.625c0.068,0,0.128,0.04,0.154,0.103
	C3.472,1.307,3.457,1.378,3.41,1.426L2.383,2.453C2.351,2.484,2.308,2.502,2.265,2.502H0.211z M0.613,2.168H2.18l0.709-0.693H1.307
	L0.613,2.168z M0.613,1.141H2.18l0.709-0.693H1.307L0.613,1.141z"/>
<g>
	<path class="st0" d="M5.211,2.096C5.182,2.105,5.15,2.113,5.113,2.121C5.076,2.129,5.037,2.136,4.997,2.141
		c-0.04,0.006-0.082,0.01-0.123,0.014c-0.042,0.003-0.082,0.005-0.12,0.005c-0.092,0-0.174-0.014-0.247-0.041
		C4.434,2.092,4.373,2.053,4.324,2.002C4.274,1.951,4.236,1.889,4.21,1.816C4.184,1.743,4.171,1.661,4.171,1.57
		c0-0.092,0.011-0.176,0.034-0.25C4.227,1.246,4.26,1.183,4.302,1.131c0.043-0.052,0.095-0.092,0.156-0.119
		C4.52,0.984,4.591,0.971,4.67,0.971c0.044,0,0.083,0.004,0.118,0.013c0.035,0.009,0.07,0.021,0.105,0.037V0.505l0.317-0.052V2.096z
		 M4.494,1.555c0,0.1,0.022,0.18,0.066,0.24c0.044,0.06,0.109,0.091,0.196,0.091c0.028,0,0.055-0.001,0.079-0.003
		c0.024-0.002,0.044-0.005,0.06-0.008V1.289c-0.02-0.013-0.046-0.024-0.078-0.032C4.784,1.248,4.752,1.243,4.719,1.243
		C4.569,1.243,4.494,1.347,4.494,1.555z"/>
	<path class="st0" d="M5.83,1.901c0.058,0,0.099-0.006,0.123-0.017C5.977,1.872,5.989,1.85,5.989,1.817
		c0-0.026-0.016-0.049-0.047-0.068C5.911,1.729,5.864,1.707,5.8,1.683C5.75,1.664,5.705,1.644,5.665,1.624
		C5.624,1.604,5.59,1.58,5.562,1.552C5.533,1.523,5.511,1.49,5.496,1.451C5.48,1.412,5.472,1.365,5.472,1.31
		c0-0.107,0.039-0.191,0.117-0.253C5.667,0.995,5.774,0.964,5.91,0.964c0.068,0,0.133,0.006,0.196,0.018
		c0.062,0.012,0.112,0.026,0.149,0.04L6.2,1.274C6.163,1.261,6.123,1.249,6.08,1.239c-0.043-0.01-0.092-0.015-0.146-0.015
		c-0.099,0-0.149,0.028-0.149,0.085c0,0.013,0.002,0.025,0.006,0.034c0.004,0.01,0.013,0.02,0.026,0.029
		c0.013,0.009,0.03,0.019,0.052,0.03c0.022,0.011,0.05,0.023,0.084,0.036C6.023,1.465,6.08,1.49,6.125,1.516
		c0.045,0.026,0.081,0.053,0.107,0.083c0.026,0.029,0.045,0.062,0.055,0.098c0.011,0.036,0.016,0.078,0.016,0.125
		c0,0.112-0.041,0.197-0.124,0.255c-0.083,0.057-0.2,0.086-0.352,0.086c-0.099,0-0.182-0.009-0.248-0.026
		C5.514,2.12,5.468,2.105,5.443,2.094l0.053-0.262C5.55,1.854,5.605,1.871,5.662,1.883C5.718,1.895,5.774,1.901,5.83,1.901z"/>
	<path class="st0" d="M6.487,1.572c0-0.101,0.015-0.189,0.046-0.265c0.03-0.076,0.071-0.139,0.12-0.189
		c0.05-0.05,0.107-0.089,0.171-0.115c0.065-0.026,0.131-0.039,0.199-0.039c0.159,0,0.284,0.049,0.377,0.148
		c0.092,0.099,0.138,0.244,0.138,0.436c0,0.019-0.001,0.039-0.002,0.062C7.534,1.633,7.533,1.652,7.531,1.67H6.812
		C6.819,1.736,6.85,1.789,6.904,1.828C6.958,1.866,7.03,1.886,7.121,1.886c0.058,0,0.115-0.005,0.171-0.016
		c0.056-0.011,0.102-0.024,0.137-0.04l0.043,0.262C7.455,2.1,7.432,2.109,7.404,2.118C7.375,2.126,7.344,2.134,7.309,2.14
		S7.237,2.152,7.197,2.157c-0.04,0.004-0.079,0.006-0.119,0.006c-0.101,0-0.188-0.015-0.263-0.045
		C6.741,2.087,6.679,2.046,6.63,1.993C6.582,1.94,6.545,1.878,6.522,1.806C6.499,1.734,6.487,1.656,6.487,1.572z M7.231,1.449
		C7.23,1.422,7.225,1.395,7.218,1.369C7.21,1.343,7.198,1.32,7.181,1.3C7.165,1.279,7.144,1.263,7.12,1.25
		C7.095,1.237,7.064,1.23,7.027,1.23c-0.036,0-0.066,0.006-0.092,0.018C6.91,1.261,6.889,1.277,6.872,1.297
		c-0.017,0.02-0.03,0.044-0.039,0.07c-0.009,0.027-0.016,0.054-0.02,0.081H7.231z"/>
	<path class="st0" d="M8.823,1.564c0,0.091-0.013,0.173-0.039,0.247C8.757,1.884,8.719,1.947,8.669,1.999
		c-0.05,0.052-0.111,0.092-0.183,0.12C8.414,2.147,8.332,2.161,8.24,2.161c-0.038,0-0.078-0.002-0.12-0.005
		C8.078,2.152,8.037,2.147,7.996,2.141C7.956,2.136,7.917,2.129,7.88,2.121C7.843,2.113,7.811,2.105,7.782,2.096V0.505l0.317-0.052
		V1.02C8.135,1.005,8.172,0.992,8.21,0.984c0.038-0.009,0.079-0.013,0.123-0.013c0.079,0,0.15,0.014,0.211,0.042
		c0.061,0.028,0.112,0.068,0.153,0.12C8.738,1.185,8.769,1.247,8.791,1.32C8.812,1.393,8.823,1.474,8.823,1.564z M8.499,1.555
		c0-0.208-0.075-0.312-0.225-0.312c-0.033,0-0.065,0.004-0.097,0.013C8.145,1.265,8.119,1.276,8.099,1.289v0.587
		c0.016,0.003,0.035,0.005,0.06,0.008c0.024,0.002,0.05,0.003,0.079,0.003c0.087,0,0.152-0.03,0.196-0.091
		C8.477,1.735,8.499,1.655,8.499,1.555z"/>
	<path class="st0" d="M9.469,0.964c0.094,0,0.172,0.011,0.234,0.033c0.062,0.022,0.112,0.053,0.15,0.093
		c0.038,0.041,0.064,0.09,0.08,0.147c0.016,0.058,0.023,0.122,0.023,0.193V2.1C9.911,2.11,9.848,2.122,9.767,2.136
		C9.686,2.15,9.588,2.157,9.473,2.157c-0.072,0-0.138-0.007-0.197-0.02c-0.059-0.013-0.11-0.034-0.152-0.064
		C9.082,2.044,9.049,2.005,9.027,1.958C9.004,1.91,8.993,1.851,8.993,1.782c0-0.066,0.013-0.123,0.039-0.169
		c0.026-0.046,0.061-0.083,0.105-0.11c0.044-0.027,0.094-0.047,0.151-0.059c0.057-0.012,0.115-0.018,0.176-0.018
		c0.041,0,0.078,0.002,0.11,0.005c0.032,0.004,0.058,0.008,0.078,0.014v-0.03c0-0.055-0.016-0.099-0.049-0.132
		c-0.033-0.033-0.089-0.05-0.17-0.05c-0.054,0-0.107,0.004-0.16,0.012C9.221,1.252,9.176,1.263,9.137,1.278l-0.04-0.26
		C9.115,1.012,9.138,1.006,9.166,1c0.028-0.006,0.058-0.012,0.09-0.017C9.289,0.978,9.323,0.973,9.36,0.969
		C9.396,0.966,9.432,0.964,9.469,0.964z M9.495,1.908c0.031,0,0.061-0.001,0.089-0.002c0.028-0.001,0.051-0.004,0.068-0.007V1.655
		C9.639,1.652,9.62,1.649,9.595,1.646c-0.026-0.003-0.049-0.004-0.07-0.004c-0.03,0-0.058,0.002-0.084,0.005
		C9.414,1.65,9.391,1.657,9.371,1.667c-0.02,0.01-0.035,0.024-0.047,0.041C9.313,1.726,9.307,1.748,9.307,1.774
		c0,0.051,0.017,0.086,0.05,0.105C9.391,1.898,9.436,1.908,9.495,1.908z"/>
</g>
<polygon class="st1" points="0.835,1.475 3.361,1.475 3.014,1.822 0.488,1.822 "/>
</svg>
