<?xml version="1.0" encoding="utf-8"?>
<!-- Generator: Adobe Illustrator 25.4.1, SVG Export Plug-In . SVG Version: 6.00 Build 0)  -->
<svg version="1.1" id="Capa_1" xmlns="http://www.w3.org/2000/svg" xmlns:xlink="http://www.w3.org/1999/xlink" x="0px" y="0px"
	 width="10px" height="10px" viewBox="0 0 10 10" style="enable-background:new 0 0 10 10;" xml:space="preserve">
<style type="text/css">
	.st0{fill:#FFFFFF;}
</style>
<g>
	<path class="st0" d="M0.779,9.594c0,0.016-0.001,0.029-0.004,0.036C0.657,9.641,0.54,9.652,0.422,9.664
		C0.415,9.665,0.41,9.665,0.407,9.665C0.402,9.626,0.399,9.564,0.398,9.479C0.396,9.379,0.395,9.25,0.395,9.091
		c0-0.035,0-0.07,0-0.105c0.02-0.002,0.04-0.004,0.059-0.005c0.002,0.002,0.007,0.016,0.007,0.05c0,0.02,0,0.04,0,0.06
		c0.067-0.004,0.133-0.008,0.2-0.012c0-0.134,0-0.268,0-0.402c-0.067,0.002-0.133,0.005-0.2,0.007c0,0.02,0,0.04,0,0.06
		c0,0.03-0.004,0.042-0.003,0.044C0.439,8.788,0.418,8.789,0.398,8.79c0.001-0.114,0.003-0.207,0.005-0.278
		C0.405,8.431,0.408,8.376,0.41,8.35c0-0.001,0-0.002,0.001-0.003c0.004,0,0.126-0.002,0.126-0.002
		C0.538,8.353,0.54,8.367,0.54,8.389c0,0.02,0,0.039,0,0.059c0.066-0.001,0.132-0.003,0.198-0.004c0-0.099,0-0.197,0-0.296
		c-0.24,0-0.479,0.001-0.718,0.002c0,0.068,0,0.136,0,0.204c0.028,0,0.056-0.001,0.083-0.001c0.001,0.003,0.001,0.006,0.002,0.01
		c0.001,0.022,0.002,0.044,0.004,0.066c0.001,0.02,0.002,0.044,0.003,0.07c0.001,0.034,0.001,0.067,0.002,0.101
		c0.001,0.039,0.001,0.089,0.001,0.149c0,0.177,0,0.354,0,0.531c0,0.089,0,0.17-0.001,0.243C0.113,9.594,0.111,9.657,0.109,9.71
		c0,0.004-0.001,0.008-0.001,0.011c-0.001,0-0.087,0.01-0.087,0.01c0,0.069,0,0.137,0,0.206c0.318-0.04,0.637-0.076,0.956-0.108
		c0-0.103,0-0.206,0.001-0.309C0.911,9.524,0.845,9.53,0.779,9.535C0.779,9.555,0.779,9.574,0.779,9.594z"/>
	<path class="st0" d="M1.832,9.511c0,0.018-0.002,0.028-0.004,0.034C1.707,9.553,1.586,9.562,1.466,9.572
		C1.462,9.563,1.457,9.544,1.456,9.503C1.454,9.409,1.452,9.31,1.451,9.205C1.45,9.102,1.45,8.99,1.45,8.871
		c0-0.107,0.001-0.193,0.002-0.26c0.001-0.066,0.003-0.119,0.004-0.157C1.458,8.417,1.459,8.39,1.461,8.373
		c0.002-0.017,0.003-0.029,0.004-0.034c0.001-0.003,0.001-0.004,0.001-0.006c0.035,0,0.071-0.001,0.106-0.001
		c0-0.062,0-0.124,0-0.186c-0.165,0-0.331,0.001-0.496,0.001c0,0.064,0,0.127,0,0.191c0.027,0,0.053-0.001,0.08-0.001
		c0,0,0,0.001,0,0.002C1.158,8.358,1.16,8.378,1.162,8.4c0.002,0.022,0.003,0.05,0.003,0.085c0.001,0.047,0.001,0.093,0.002,0.14
		c0,0.057,0.001,0.13,0,0.218c0,0.097,0,0.193-0.001,0.29c0,0.079-0.001,0.144-0.001,0.196C1.165,9.37,1.164,9.411,1.164,9.452
		C1.163,9.481,1.162,9.505,1.161,9.523C1.158,9.554,1.156,9.579,1.155,9.599c0,0.008-0.001,0.014-0.002,0.02
		C1.127,9.621,1.1,9.623,1.074,9.626c0,0.064,0,0.128,0,0.192c0.319-0.031,0.638-0.059,0.958-0.082c0-0.098,0-0.195,0.001-0.293
		c-0.067,0.004-0.133,0.008-0.2,0.013C1.832,9.474,1.832,9.492,1.832,9.511z"/>
	<path class="st0" d="M3.019,8.404c0,0.098,0.06,0.155,0.162,0.154c0.054-0.001,0.1-0.021,0.135-0.059
		c0.031-0.034,0.046-0.072,0.046-0.113c0-0.037-0.009-0.071-0.028-0.103C3.316,8.251,3.29,8.223,3.257,8.2
		C3.224,8.177,3.186,8.159,3.142,8.146C3.098,8.134,3.049,8.127,2.996,8.127c-0.091,0-0.17,0.016-0.235,0.048
		C2.696,8.207,2.642,8.252,2.601,8.309c-0.02,0.029-0.037,0.06-0.05,0.091C2.537,8.432,2.527,8.473,2.52,8.521
		C2.514,8.567,2.51,8.624,2.507,8.692C2.504,8.759,2.503,8.844,2.503,8.945c0,0.105,0.001,0.192,0.005,0.259
		c0.003,0.069,0.009,0.126,0.017,0.171c0.009,0.048,0.02,0.086,0.036,0.116C2.576,9.52,2.595,9.546,2.617,9.569
		c0.042,0.044,0.094,0.077,0.156,0.099C2.835,9.69,2.906,9.699,2.983,9.695c0.087-0.004,0.16-0.025,0.217-0.06
		C3.26,9.598,3.303,9.54,3.328,9.463c0.005-0.015,0.01-0.03,0.015-0.045C3.286,9.4,3.229,9.382,3.172,9.365
		C3.166,9.383,3.159,9.402,3.153,9.421c-0.011,0.032-0.028,0.054-0.051,0.07C3.077,9.507,3.043,9.516,2.998,9.518
		C2.962,9.519,2.933,9.516,2.914,9.508C2.894,9.5,2.874,9.485,2.855,9.463C2.852,9.459,2.846,9.451,2.841,9.436
		C2.838,9.429,2.832,9.409,2.827,9.361C2.823,9.322,2.82,9.266,2.818,9.19C2.816,9.116,2.815,9.015,2.815,8.889
		c0-0.109,0.002-0.198,0.005-0.266c0.003-0.067,0.007-0.121,0.013-0.16C2.839,8.416,2.847,8.395,2.85,8.386
		c0.006-0.014,0.013-0.025,0.022-0.033c0.032-0.035,0.073-0.051,0.129-0.051c0.015,0,0.029,0.001,0.042,0.002
		C3.041,8.307,3.039,8.31,3.037,8.313C3.025,8.337,3.019,8.366,3.019,8.404z"/>
	<path class="st0" d="M4.34,9.449C4.336,9.437,4.331,9.419,4.325,9.394C4.318,9.37,4.309,9.336,4.298,9.292
		c-0.02-0.081-0.041-0.169-0.063-0.264c-0.022-0.095-0.042-0.192-0.062-0.29C4.154,8.64,4.136,8.543,4.119,8.449
		c-0.017-0.094-0.03-0.181-0.041-0.26c-0.002-0.015-0.004-0.03-0.006-0.045c-0.095,0-0.19,0-0.285,0
		C3.785,8.158,3.782,8.173,3.78,8.188C3.77,8.243,3.757,8.311,3.742,8.392C3.726,8.473,3.709,8.558,3.691,8.648
		c-0.018,0.09-0.037,0.18-0.056,0.272C3.615,9.012,3.597,9.096,3.58,9.173C3.563,9.25,3.548,9.316,3.535,9.37
		C3.523,9.424,3.514,9.458,3.508,9.475C3.507,9.477,3.507,9.479,3.506,9.48C3.48,9.481,3.453,9.481,3.426,9.482
		c0,0.058,0,0.116,0,0.174c0.125-0.005,0.251-0.009,0.376-0.013c0-0.058,0-0.115,0-0.173C3.775,9.472,3.747,9.472,3.719,9.473
		c0.007-0.035,0.013-0.069,0.02-0.104c0.082-0.002,0.164-0.004,0.246-0.006c0.004,0.023,0.007,0.044,0.01,0.064
		C3.998,9.442,3.999,9.455,4,9.466c-0.001,0-0.086,0.002-0.086,0.002c0,0.057,0,0.115,0,0.172C4.083,9.636,4.251,9.632,4.419,9.63
		c0-0.057,0-0.114,0-0.171c-0.025,0-0.05,0.001-0.075,0.001C4.343,9.457,4.341,9.453,4.34,9.449z M3.772,9.197
		c0.002-0.008,0.003-0.015,0.005-0.023c0.009-0.043,0.02-0.092,0.033-0.15c0.008-0.035,0.04-0.179,0.064-0.285
		C3.901,8.89,3.929,9.042,3.956,9.193C3.895,9.194,3.834,9.195,3.772,9.197z"/>
	<path class="st0" d="M5.173,9.063c-0.01-0.019-0.02-0.036-0.031-0.053c-0.01-0.016-0.021-0.033-0.034-0.051
		c0,0-0.076-0.11-0.098-0.142C4.974,8.762,4.944,8.716,4.92,8.678c-0.022-0.036-0.041-0.07-0.055-0.101
		C4.852,8.548,4.843,8.522,4.838,8.498C4.834,8.473,4.831,8.445,4.831,8.416c0-0.065,0.01-0.089,0.014-0.097
		C4.85,8.31,4.857,8.304,4.866,8.3C4.877,8.295,4.888,8.293,4.9,8.293c0.031,0,0.052,0.006,0.066,0.019
		c0.016,0.015,0.023,0.034,0.023,0.058c0,0.017,0,0.034,0,0.051c0.069,0,0.138,0,0.207,0c0-0.103,0-0.206,0-0.309
		c-0.069,0-0.138,0-0.207,0c0,0.008,0,0.017,0,0.025C4.96,8.13,4.926,8.127,4.886,8.127c-0.058,0-0.109,0.009-0.154,0.028
		C4.687,8.173,4.65,8.199,4.62,8.232C4.593,8.263,4.572,8.3,4.557,8.34c-0.013,0.039-0.02,0.081-0.02,0.125
		c0,0.039,0.005,0.078,0.016,0.118C4.563,8.62,4.575,8.656,4.589,8.69c0.016,0.038,0.036,0.076,0.059,0.114
		c0.022,0.037,0.05,0.079,0.085,0.129C4.765,8.976,4.794,9.015,4.821,9.05c0.025,0.033,0.047,0.065,0.064,0.095
		c0.017,0.03,0.03,0.06,0.039,0.09C4.933,9.263,4.938,9.296,4.938,9.33c0,0.044-0.012,0.081-0.036,0.11
		c-0.02,0.024-0.05,0.034-0.096,0.035c-0.03,0-0.055-0.007-0.078-0.023c-0.024-0.017-0.04-0.038-0.049-0.065
		C4.673,9.369,4.667,9.35,4.661,9.332c-0.057,0.02-0.115,0.04-0.172,0.06C4.493,9.406,4.498,9.42,4.502,9.435
		C4.525,9.506,4.567,9.56,4.627,9.594c0.058,0.034,0.128,0.05,0.208,0.05c0.12-0.001,0.218-0.031,0.291-0.091
		c0.073-0.06,0.11-0.147,0.11-0.26c0-0.049-0.005-0.09-0.017-0.124C5.209,9.137,5.194,9.101,5.173,9.063z"/>
	<path class="st0" d="M5.909,8.367c0.001-0.019,0.001-0.032,0.002-0.04c0.022,0,0.043,0,0.065,0c0.007,0,0.012,0,0.015,0.001
		c0.002,0.007,0.005,0.02,0.005,0.045c0,0.017,0,0.034,0,0.051c0.067,0,0.135,0.001,0.202,0.001c0-0.094,0-0.188,0-0.282
		c-0.288,0-0.575,0-0.863,0c0,0.093,0,0.186,0,0.279c0.066,0,0.132,0,0.198,0c0-0.017,0-0.034,0-0.051
		c0-0.021,0.003-0.035,0.006-0.045c0.023,0,0.045,0,0.068,0c0.001,0.007,0.001,0.02,0.002,0.04c0.001,0.035,0.002,0.078,0.003,0.128
		c0.001,0.049,0.002,0.102,0.002,0.158c0,0.093,0,0.186,0,0.279c0,0.045,0,0.093-0.001,0.142C5.614,9.163,5.613,9.253,5.611,9.344
		C5.611,9.382,5.61,9.413,5.609,9.437c0,0.009-0.001,0.016-0.001,0.022c-0.033,0-0.067-0.001-0.1-0.001c0,0.057,0,0.114,0,0.171
		c0.169,0.002,0.337,0.005,0.506,0.01c0-0.057,0-0.115,0-0.172c-0.033-0.001-0.067-0.002-0.1-0.002c0-0.006-0.001-0.013-0.001-0.022
		C5.911,9.418,5.91,9.387,5.91,9.348C5.909,9.31,5.905,9.075,5.905,9.075C5.905,9.026,5.905,8.979,5.905,8.933
		c0-0.093,0-0.186,0-0.279c0-0.056,0.001-0.109,0.002-0.158C5.907,8.446,5.908,8.403,5.909,8.367z"/>
	<path class="st0" d="M6.691,9.487c0-0.006-0.001-0.013-0.001-0.023C6.688,9.439,6.687,9.407,6.687,9.369
		C6.685,9.277,6.684,9.184,6.682,9.091c-0.001-0.05-0.001-0.098-0.001-0.145c0-0.095,0-0.19-0.001-0.285
		c0-0.058,0.001-0.113,0.002-0.165c0.001-0.052,0.002-0.097,0.003-0.135c0.001-0.023,0.001-0.036,0.002-0.044
		c0.028,0,0.055,0,0.083,0c0-0.058,0-0.116,0-0.174c-0.156,0-0.312,0-0.467,0c0,0.057,0,0.114,0,0.172c0.027,0,0.054,0,0.081,0
		C6.385,8.323,6.386,8.337,6.387,8.36C6.389,8.398,6.39,8.442,6.391,8.493c0.001,0.055,0.001,0.11,0.002,0.165
		c0.001,0.058,0.001,0.111,0.001,0.159c0,0.041,0,0.083,0,0.124c0,0.046,0,0.094-0.001,0.143C6.393,9.133,6.393,9.182,6.392,9.231
		c0,0.047-0.001,0.09-0.003,0.129c-0.001,0.038-0.002,0.07-0.003,0.095C6.386,9.463,6.385,9.47,6.385,9.476
		c-0.027-0.001-0.053-0.002-0.08-0.002c0,0.058,0,0.115,0,0.173c0.156,0.005,0.312,0.011,0.468,0.018c0-0.058,0-0.117,0-0.175
		C6.745,9.489,6.718,9.488,6.691,9.487z"/>
	<path class="st0" d="M7.651,9.425c0,0.018,0,0.036,0,0.054c0,0.018-0.002,0.027-0.004,0.033c-0.121-0.007-0.242-0.014-0.363-0.02
		c-0.003-0.008-0.008-0.027-0.01-0.066C7.272,9.337,7.27,9.243,7.268,9.145C7.267,9.046,7.266,8.941,7.266,8.829
		c0-0.101,0-0.182,0.001-0.245C7.268,8.521,7.269,8.471,7.27,8.435C7.271,8.4,7.273,8.374,7.275,8.359
		c0.001-0.011,0.002-0.022,0.004-0.033c0.001-0.003,0.001-0.004,0.001-0.005c0.035,0,0.071,0.001,0.106,0.001
		c0-0.059,0-0.118,0-0.177c-0.165,0-0.331,0-0.496-0.001c0,0.058,0,0.116,0,0.174c0.027,0,0.053,0,0.08,0.001c0,0,0,0.001,0,0.001
		c0.002,0.015,0.004,0.031,0.006,0.056c0.002,0.02,0.003,0.046,0.004,0.086C6.98,8.503,6.981,8.544,6.981,8.584
		c0.001,0.053,0.001,0.12,0.001,0.201c0,0.089,0,0.178,0.001,0.267c0,0.073,0,0.132-0.001,0.18C6.982,9.27,6.982,9.308,6.981,9.346
		C6.98,9.372,6.98,9.395,6.979,9.411C6.976,9.439,6.974,9.462,6.973,9.48c0,0.007-0.001,0.013-0.002,0.018
		c-0.026-0.001-0.053-0.002-0.08-0.003c0,0.059,0,0.117,0,0.176c0.32,0.015,0.64,0.034,0.959,0.057c0-0.097,0-0.194-0.001-0.291
		C7.784,9.432,7.717,9.428,7.651,9.425z"/>
	<path class="st0" d="M8.715,9.494c0,0.019,0,0.038,0,0.057c0,0.018-0.002,0.029-0.003,0.035C8.591,9.576,8.47,9.566,8.349,9.558
		C8.346,9.549,8.341,9.529,8.34,9.489C8.337,9.395,8.335,9.296,8.333,9.193C8.332,9.09,8.331,8.98,8.331,8.863
		c0-0.105,0-0.191,0.001-0.257C8.333,8.54,8.334,8.488,8.336,8.45C8.337,8.414,8.338,8.387,8.34,8.371
		c0.001-0.011,0.002-0.023,0.003-0.034c0.001-0.003,0.001-0.004,0.001-0.006c0.035,0,0.071,0.001,0.106,0.001
		c0-0.062,0-0.124,0-0.186c-0.165,0-0.331-0.001-0.496-0.001c0,0.06,0,0.121,0,0.181c0.027,0,0.053,0,0.08,0.001
		c0,0,0,0.001,0,0.002C8.036,8.345,8.038,8.361,8.04,8.381c0,0.002,0,0.005,0.001,0.007C8.042,8.409,8.044,8.436,8.044,8.47
		c0.001,0.045,0.001,0.09,0.002,0.134c0.001,0.055,0.001,0.125,0.001,0.209c0,0.093,0,0.186,0.001,0.278c0,0.076,0,0.138,0,0.188
		c0,0-0.001,0.092-0.002,0.118C8.046,9.426,8.045,9.449,8.044,9.466C8.042,9.496,8.04,9.52,8.039,9.538
		c0,0.007-0.001,0.013-0.002,0.019C8.01,9.555,7.984,9.554,7.958,9.552c0,0.061,0,0.122,0,0.183
		c0.319,0.024,0.639,0.051,0.958,0.082c0-0.102,0-0.205-0.001-0.307C8.848,9.504,8.782,9.499,8.715,9.494z"/>
	<path class="st0" d="M9.972,8.753C9.967,8.665,9.96,8.589,9.949,8.527C9.937,8.462,9.923,8.411,9.904,8.371
		C9.885,8.329,9.861,8.293,9.832,8.263C9.792,8.22,9.741,8.187,9.683,8.164C9.625,8.141,9.557,8.129,9.479,8.129
		c-0.072,0-0.137,0.01-0.191,0.031C9.232,8.181,9.185,8.211,9.147,8.248C9.117,8.277,9.092,8.311,9.072,8.35
		c-0.02,0.038-0.035,0.087-0.048,0.149C9.013,8.559,9.005,8.63,9,8.711C8.996,8.792,8.993,8.894,8.994,9.016
		c0,0.12,0.003,0.216,0.008,0.293c0.005,0.078,0.013,0.145,0.024,0.198c0.011,0.055,0.027,0.101,0.046,0.137
		C9.09,9.68,9.113,9.711,9.139,9.739C9.18,9.781,9.231,9.817,9.293,9.845C9.352,9.872,9.423,9.891,9.505,9.9
		c0.14,0.016,0.254-0.013,0.338-0.09c0.024-0.023,0.045-0.051,0.064-0.085c0.017-0.033,0.032-0.078,0.043-0.134
		c0.011-0.054,0.019-0.123,0.023-0.206c0.005-0.082,0.007-0.183,0.007-0.309C9.979,8.946,9.977,8.84,9.972,8.753z M9.666,9.357
		C9.664,9.431,9.661,9.487,9.658,9.527C9.653,9.577,9.649,9.596,9.647,9.602C9.643,9.615,9.638,9.625,9.633,9.633
		C9.618,9.658,9.598,9.675,9.574,9.687C9.549,9.698,9.52,9.702,9.488,9.699c-0.031-0.003-0.058-0.011-0.08-0.025
		C9.385,9.66,9.365,9.642,9.348,9.62c-0.004-0.005-0.01-0.014-0.016-0.03C9.33,9.584,9.324,9.563,9.318,9.511
		C9.313,9.467,9.31,9.408,9.307,9.335C9.305,9.26,9.304,9.159,9.303,9.033c0-0.134,0.001-0.242,0.003-0.324
		c0.002-0.078,0.006-0.142,0.01-0.19c0.005-0.052,0.012-0.077,0.016-0.089C9.339,8.413,9.345,8.4,9.352,8.391
		c0.032-0.044,0.075-0.065,0.135-0.064c0.03,0,0.056,0.006,0.077,0.018c0.021,0.012,0.039,0.028,0.054,0.049
		c0.007,0.01,0.013,0.024,0.019,0.042c0.004,0.01,0.01,0.036,0.016,0.092c0.005,0.049,0.008,0.115,0.011,0.195
		c0.002,0.084,0.004,0.195,0.004,0.334C9.668,9.182,9.667,9.282,9.666,9.357z"/>
	<polygon class="st0" points="3.411,7.264 3.48,7.352 3.549,7.264 3.48,7.176 	"/>
	<polygon class="st0" points="6.434,7.176 6.364,7.264 6.434,7.352 6.503,7.264 	"/>
	<path class="st0" d="M4.77,7.074c-0.004-0.025-0.01-0.046-0.018-0.063C4.744,6.994,4.735,6.98,4.723,6.968
		c-0.016-0.017-0.037-0.03-0.06-0.04C4.64,6.919,4.613,6.914,4.581,6.914c-0.03,0-0.055,0.004-0.077,0.013
		C4.482,6.936,4.463,6.949,4.448,6.965c-0.012,0.012-0.022,0.027-0.03,0.044C4.41,7.025,4.403,7.046,4.398,7.072
		c-0.005,0.026-0.008,0.056-0.01,0.091C4.387,7.199,4.386,7.243,4.386,7.295c0,0.051,0.001,0.093,0.003,0.126
		c0.002,0.033,0.005,0.062,0.009,0.084c0.005,0.023,0.011,0.042,0.018,0.057C4.424,7.577,4.433,7.59,4.443,7.6
		C4.46,7.616,4.481,7.629,4.505,7.638c0.024,0.009,0.053,0.013,0.085,0.013c0.057,0,0.102-0.018,0.136-0.053
		c0.01-0.01,0.019-0.023,0.026-0.037C4.759,7.548,4.765,7.529,4.77,7.506c0.004-0.022,0.007-0.05,0.01-0.084
		c0.002-0.033,0.003-0.075,0.003-0.125c0-0.052-0.001-0.095-0.003-0.131C4.777,7.129,4.774,7.099,4.77,7.074z M4.658,7.421
		C4.658,7.451,4.656,7.475,4.655,7.492C4.654,7.503,4.653,7.517,4.65,7.524c-0.002,0.006-0.004,0.01-0.006,0.013
		C4.638,7.548,4.63,7.557,4.62,7.563C4.61,7.568,4.598,7.572,4.584,7.572c-0.013,0-0.024-0.002-0.033-0.007
		c-0.01-0.005-0.018-0.012-0.025-0.021C4.524,7.541,4.521,7.536,4.52,7.531C4.518,7.528,4.516,7.518,4.514,7.497
		C4.512,7.48,4.51,7.455,4.509,7.423C4.508,7.391,4.508,7.349,4.508,7.295c0-0.057,0-0.103,0.001-0.137
		C4.51,7.124,4.512,7.097,4.514,7.077C4.516,7.055,4.518,7.044,4.52,7.039c0.003-0.007,0.005-0.013,0.008-0.017
		c0.013-0.02,0.031-0.029,0.056-0.029c0.013,0,0.023,0.002,0.032,0.007c0.009,0.005,0.016,0.012,0.023,0.021
		c0.003,0.004,0.005,0.01,0.008,0.017c0.002,0.005,0.004,0.016,0.006,0.039c0.002,0.02,0.003,0.046,0.004,0.081
		c0.001,0.035,0.001,0.081,0.001,0.138C4.659,7.348,4.659,7.389,4.658,7.421z"/>
	<path class="st0" d="M4.827,7.055h0.077V7.032c0-0.009,0.001-0.016,0.005-0.024l0.025-0.001l0.004,0.002
		c0,0.004,0.001,0.011,0.001,0.02L4.94,7.091c0,0.024,0.001,0.05,0.001,0.077v0.136c0,0.022-0.001,0.139-0.001,0.139
		S4.938,7.538,4.938,7.551c0,0.005,0,0.009,0,0.012h-0.04v0.08h0.201v-0.08H5.086L5.06,7.564L5.057,7.563c0-0.003,0-0.007,0-0.012
		C5.056,7.539,5.056,7.523,5.056,7.505c0,0-0.002-0.179-0.002-0.202V7.168c0-0.027,0-0.053,0.001-0.077l0.001-0.062
		c0-0.011,0.001-0.017,0.001-0.021c0,0,0.032,0,0.033,0c0.001,0,0.002,0,0.002-0.001C5.093,7.01,5.095,7.017,5.095,7.032v0.023
		h0.078V6.922H4.827V7.055z"/>
	<path class="st0" d="M5.538,7.536c0,0.01-0.001,0.015-0.003,0.017c0,0-0.152,0-0.152,0C5.382,7.537,5.381,7.51,5.38,7.474
		C5.379,7.432,5.379,7.378,5.379,7.312V7.267l0.027-0.001c0,0,0.003,0.004,0.003,0.022v0.023h0.078V7.146H5.41v0.023
		c0,0.014-0.002,0.019-0.002,0.02H5.38c0-0.048,0.001-0.087,0.002-0.117c0.001-0.034,0.002-0.057,0.003-0.067
		c0-0.001,0-0.002,0-0.003c0.002,0,0.053-0.003,0.053-0.003C5.439,7,5.441,7.007,5.441,7.022v0.023h0.077V6.922H5.23v0.079h0.022
		l0.012,0.001c0,0.001,0.001,0.003,0.001,0.005l0.001,0.027c0,0.008,0.001,0.018,0.001,0.029l0.001,0.102l0,0.316
		c0,0.029-0.001,0.055-0.002,0.076c0,0.005-0.001,0.007-0.002,0.007c0,0-0.001,0-0.001-0.001H5.23v0.08h0.385V7.513H5.538V7.536z"/>
	<path class="st0" d="M5.977,7.536c0,0.01-0.001,0.014-0.003,0.017l-0.149,0C5.824,7.551,5.822,7.542,5.821,7.521
		C5.82,7.479,5.819,7.435,5.819,7.389c0-0.046-0.001-0.095-0.001-0.148c0-0.047,0-0.085,0.001-0.115c0-0.029,0.001-0.053,0.002-0.07
		C5.821,7.04,5.821,7.028,5.822,7.021l0.002-0.02h0.043V6.922H5.67v0.079h0.022l0.01,0.003C5.703,7.012,5.704,7.021,5.704,7.03
		c0.001,0.01,0.001,0.022,0.001,0.037l0,0.017c0,0,0.001,0.101,0.001,0.139V7.35c0,0.034-0.001,0.126-0.001,0.126
		S5.705,7.512,5.705,7.521L5.702,7.553c0,0.005-0.001,0.008-0.001,0.01H5.67v0.08h0.385V7.513H5.977V7.536z"/>
	<path class="st0" d="M4.14,7.001L4.14,7.001L4.163,7l0.003,0.001c0,0.004,0.001,0.01,0.001,0.018
		c0.001,0.014,0.001,0.032,0.001,0.053c0,0,0.001,0.082,0.001,0.116h-0.1V7.14c0-0.024,0-0.047,0.001-0.068L4.071,7.02
		c0-0.01,0.001-0.015,0.001-0.018h0.025V6.922H3.92v0.079h0.012L3.949,7l0.004,0.003c0,0.004,0.001,0.011,0.001,0.022
		c0.001,0.018,0.001,0.039,0.001,0.064l0.001,0.156l0,0.129c0,0-0.001,0.114-0.002,0.132c0,0-0.002,0.055-0.002,0.058H3.92v0.08
		h0.178v-0.08H4.097L4.075,7.564L4.073,7.563c0-0.003-0.001-0.039-0.002-0.058L4.07,7.443L4.069,7.267h0.1v0.037
		c0,0.022-0.002,0.201-0.002,0.201c0,0.018-0.001,0.055-0.002,0.058H4.14v0.08h0.178v-0.08H4.307L4.288,7.564L4.286,7.563
		c0-0.003-0.002-0.058-0.002-0.058C4.283,7.486,4.282,7.373,4.282,7.373l0-0.205c0-0.028,0-0.054,0.001-0.079
		c0.001-0.025,0.001-0.046,0.002-0.064c0.001-0.013,0.001-0.02,0.001-0.023h0.033V6.922H4.14V7.001z"/>
	<path class="st0" d="M8.86,7.782L8.616,7.345L8.86,6.908L8.584,6.914V4.921c0-0.024,0.044-0.071,0.081-0.095l0.048-0.031V4.043
		L8.666,4.012C8.585,3.958,8.49,3.915,8.385,3.882L8.25,3.841v0.235l-0.116,0V3.837L8.122,3.829
		c-0.045-0.004-0.103-0.007-0.15-0.007c-0.047,0-0.109,0.003-0.153,0.007L7.806,3.837v0.239l-0.113,0V3.841L7.559,3.882
		c-0.105,0.032-0.2,0.076-0.282,0.13L7.231,4.043v0.752L7.28,4.826C7.312,4.847,7.36,4.896,7.36,4.921v0.676L7.252,5.734
		L7.043,5.487L6.681,5.794H6.62L6.252,3.664C6.251,3.66,6.188,3.251,6.581,3.064l0.058-0.028l0.016-1.882L6.591,1.126
		c-0.195-0.083-0.474-0.15-0.745-0.21L5.719,0.889v0.475H5.458V0.831L5.361,0.824C5.259,0.817,5.072,0.813,4.957,0.813
		c-0.115,0-0.302,0.004-0.404,0.011L4.456,0.831v0.532H4.194V0.889L4.068,0.916c-0.271,0.06-0.55,0.127-0.745,0.21L3.259,1.153
		l0.015,1.882l0.058,0.028c0.389,0.186,0.331,0.585,0.329,0.6l-0.368,2.13H3.233L2.871,5.487L2.662,5.734L2.553,5.597V4.921
		c0-0.024,0.043-0.071,0.081-0.095l0.048-0.031V4.043L2.636,4.012c-0.081-0.054-0.176-0.098-0.282-0.13L2.22,3.841v0.235l-0.116,0
		V3.837L2.091,3.829c-0.045-0.004-0.103-0.007-0.15-0.007c-0.047,0-0.109,0.003-0.153,0.007L1.776,3.837v0.239l-0.113,0V3.841
		L1.529,3.882c-0.105,0.032-0.2,0.076-0.282,0.13L1.201,4.043v0.695l0,0.057l0.047,0.031C1.286,4.85,1.33,4.897,1.33,4.921v1.993
		L1.054,6.908l0.244,0.437L1.054,7.782l2.31-0.144l0.282,0.319h2.621L6.55,7.638L8.86,7.782z M7.02,5.763l0.237,0.28l0.3-0.377
		V4.921c0-0.105-0.077-0.186-0.129-0.229V4.15c0.022-0.013,0.046-0.025,0.07-0.036v0.158l0.423,0V4.019
		c0.018-0.001,0.035-0.001,0.051-0.001c0.015,0,0.031,0,0.048,0.001v0.237l0.027,0.012c0.006,0.003,0.141,0.067,0.139,0.236l0,0.407
		L7.97,4.773L7.709,4.941v0.681h0.478l0,0.669h0.147v0.111H8.186v0.521L6.813,6.951V6.438H6.812L6.811,5.94L7.02,5.763z
		 M8.117,5.004v0.502H7.824V5.004L7.97,4.91L8.117,5.004z M1.894,5.871H1.769v0.111h0.125v0.312v0.474v0.158L1.525,6.918V4.921
		c0-0.105-0.077-0.186-0.129-0.229V4.15c0.022-0.013,0.046-0.025,0.07-0.036v0.158l0.37,0c0.013,0.01,0.051,0.053,0.057,0.2l0,0.326
		l0.003,0.002l-0.219,0.14v0.681h0.216V5.871z M2.086,5.506H1.793V5.004L1.94,4.91l0.147,0.094V5.506z M2.743,6.043L2.659,5.97
		l0.23-0.272L2.743,6.043z M3.855,3.697C3.856,3.692,3.936,3.175,3.47,2.914l-0.013-1.63c0.16-0.06,0.369-0.112,0.542-0.151v0.426
		h0.526c0.034,0.036,0.097,0.124,0.097,0.282v0.9h0.433v0.111H4.458v0.133h0.814v0.111H4.621v0.428l-0.187,0.12v1.489h0.187v0.634
		h0.433v0.111H4.458V6.01h0.307v0.111H4.621v0.317v0.133H3.646L3.542,5.505L3.855,3.697z M5.318,3.732v1.239H4.595V3.732
		l0.361-0.232L5.318,3.732z M6.195,7.795H3.719L3.248,7.264l0.471-0.532h2.476l0.471,0.532L6.195,7.795z"/>
	<polygon class="st0" points="4.957,0.065 4.957,0.65 6.229,0.357 	"/>
	<polygon class="st0" points="1.94,3.358 1.94,3.662 2.6,3.51 	"/>
	<polygon class="st0" points="7.97,3.358 7.97,3.662 8.631,3.51 	"/>
</g>
</svg>
